PathFileType	4	(X/Y/Z)	RBDS07static.trc
DataRate	CameraRate	NumFrames	NumMarkers	Units	OrigDataRate	OrigDataStartFrame	OrigNumFrames
150.000000	150.000000	4	48	mm	150.000000	56	150
Frame#	Time	L.Ankle			L.Ankle.Medial			L.ASIS			L.GTR			L.Heel.Bottom			L.Heel.Lateral			L.Heel.Top			L.HF			L.Iliac.Crest			L.Knee			L.Knee.Medial			L.MT1			L.MT2			L.MT5			L.PSIS			L.Shank.Bottom.Lateral			L.Shank.Bottom.Medial			L.Shank.Top.Lateral			L.Shank.Top.Medial			L.Thigh.Bottom.Lateral			L.Thigh.Bottom.Medial			L.Thigh.Top.Lateral			L.Thigh.Top.Medial			L.TT			R.Ankle			R.Ankle.Medial			R.ASIS			R.GTR			R.Heel.Bottom			R.Heel.Lateral			R.Heel.Top			R.HF			R.Iliac.Crest			R.Knee			R.Knee.Medial			R.MT1			R.MT2			R.MT5			R.PSIS			R.Shank.Bottom.Lateral			R.Shank.Bottom.Medial			R.Shank.Top.Lateral			R.Shank.Top.Medial			R.Thigh.Bottom.Lateral			R.Thigh.Bottom.Medial			R.Thigh.Top.Lateral			R.Thigh.Top.Medial			R.TT			
		X1	Y1	Z1	X2	Y2	Z2	X3	Y3	Z3	X4	Y4	Z4	X5	Y5	Z5	X6	Y6	Z6	X7	Y7	Z7	X8	Y8	Z8	X9	Y9	Z9	X10	Y10	Z10	X11	Y11	Z11	X12	Y12	Z12	X13	Y13	Z13	X14	Y14	Z14	X15	Y15	Z15	X16	Y16	Z16	X17	Y17	Z17	X18	Y18	Z18	X19	Y19	Z19	X20	Y20	Z20	X21	Y21	Z21	X22	Y22	Z22	X23	Y23	Z23	X24	Y24	Z24	X25	Y25	Z25	X26	Y26	Z26	X27	Y27	Z27	X28	Y28	Z28	X29	Y29	Z29	X30	Y30	Z30	X31	Y31	Z31	X32	Y32	Z32	X33	Y33	Z33	X34	Y34	Z34	X35	Y35	Z35	X36	Y36	Z36	X37	Y37	Z37	X38	Y38	Z38	X39	Y39	Z39	X40	Y40	Z40	X41	Y41	Z41	X42	Y42	Z42	X43	Y43	Z43	X44	Y44	Z44	X45	Y45	Z45	X46	Y46	Z46	X47	Y47	Z47	X48	Y48	Z48	

57	0.3733333333333334	696.2943725585938	113.353874206543	1034.67138671875	718.7447509765625	124.8727035522461	1117.467895507813	842.3701782226563	1083.538208007813	1089.748046875	776.8063354492188	984.77880859375	1046.538330078125	637.392578125	39.60231018066406	1080.090209960938	665.4351806640625	61.29521560668945	1038.873046875	644.9057006835938	87.52994537353516	1082.92236328125	695.7457885742188	502.2927856445313	1045.790649414063	780.9268188476563	1131.961059570313	1068.937744140625	704.7935180664063	560.6952514648438	1055.965087890625	714.2320556640625	537.4432373046875	1173.11083984375	854.3582153320313	56.05154037475586	1119.530151367188	858.0911865234375	71.63301849365234	1080.118774414063	828.4761352539063	50.49036407470703	1010.912841796875	681.73876953125	1101.773559570313	1180.05908203125	689.1497802734375	202.6557159423828	1034.808715820313	646.5146484375	196.8247528076172	1068.476318359375	674.1342163085938	281.3084411621094	1027.748168945313	632.3381958007813	276.5952758789063	1060.658935546875	707.9692993164063	703.9915161132813	1045.129638671875	661.940673828125	711.2684936523438	1102.068359375	717.6228637695313	813.9083862304688	1041.818237304688	678.1481323242188	820.1126098632813	1099.888916015625	754.8336791992188	468.2937927246094	1095.843139648438	702.642578125	107.6347274780273	1411.615478515625	721.58447265625	130.9524230957031	1328.808471679688	849.2562255859375	1084.287353515625	1347.853393554688	796.4208374023438	984.957763671875	1392.833374023438	636.2320556640625	40.18902969360352	1370.197631835938	659.9462890625	59.69821929931641	1408.9091796875	643.5826416015625	89.74169921875	1369.495483398438	724.2145385742188	502.6497497558594	1414.168334960938	782.6073608398438	1136.48681640625	1369.378540039063	732.8729248046875	559.8526000976563	1404.7890625	732.797607421875	541.824951171875	1287.993408203125	857.1160888671875	61.17570114135742	1328.696533203125	858.0598754882813	74.0543212890625	1369.909057617188	832.734375	54.65054702758789	1433.021118164063	689.0416870117188	1106.451049804688	1269.92138671875	693.5079956054688	202.782958984375	1417.250122070313	652.9877319335938	209.3734130859375	1385.2353515625	694.0007934570313	286.5453186035156	1430.478637695313	650.0740966796875	289.2126770019531	1399.18798828125	764.5025024414063	668.0900268554688	1412.37060546875	697.6986083984375	681.9909057617188	1384.534912109375	782.9169311523438	776.973388671875	1419.789306640625	719.458740234375	789.2579345703125	1394.948852539063	778.524658203125	469.8623962402344	1364.880737304688	
58	0.38	696.2975463867188	113.3672866821289	1034.672607421875	718.7429809570313	124.8818817138672	1117.471923828125	842.3480224609375	1083.540405273438	1089.753295898438	776.7734985351563	984.7826538085938	1046.52783203125	637.3883056640625	39.60687255859375	1080.086059570313	665.4288330078125	61.29794692993164	1038.86865234375	644.9019775390625	87.52678680419922	1082.908325195313	695.7493286132813	502.2879028320313	1045.785766601563	780.9127197265625	1131.968139648438	1068.93701171875	704.7727661132813	560.6922607421875	1055.97021484375	714.2391967773438	537.4191284179688	1173.091430664063	854.365966796875	56.05833053588867	1119.5341796875	858.0916137695313	71.64076995849609	1080.115112304688	828.4765625	50.48048782348633	1010.907958984375	681.71826171875	1101.771728515625	1180.060791015625	689.1470947265625	202.6486968994141	1034.81005859375	646.5126342773438	196.8244934082031	1068.483642578125	674.12939453125	281.3127746582031	1027.739990234375	632.3391723632813	276.6065979003906	1060.641479492188	707.94775390625	703.989501953125	1045.126831054688	661.92041015625	711.2694091796875	1102.055908203125	717.601318359375	813.91162109375	1041.802856445313	678.1277465820313	820.1188354492188	1099.877807617188	754.8223876953125	468.2958374023438	1095.832885742188	702.6348266601563	107.6415100097656	1411.623291015625	721.5881958007813	130.9625701904297	1328.802001953125	849.2470092773438	1084.286987304688	1347.8388671875	796.4041748046875	984.9473266601563	1392.823974609375	636.2332763671875	40.1784553527832	1370.215942382813	659.9368896484375	59.69814300537109	1408.909912109375	643.5811157226563	89.74539947509766	1369.496337890625	724.2059936523438	502.6626892089844	1414.171020507813	782.5927124023438	1136.484619140625	1369.380859375	732.8521728515625	559.8518676757813	1404.797119140625	732.77685546875	541.8291625976563	1287.981567382813	857.1163330078125	61.17865753173828	1328.696655273438	858.0572509765625	74.04889678955078	1369.904541015625	832.738525390625	54.65780258178711	1433.018676757813	689.02099609375	1106.448486328125	1269.9150390625	693.5010375976563	202.7820434570313	1417.252685546875	652.9854125976563	209.3662567138672	1385.242065429688	693.992431640625	286.5485229492188	1430.47265625	650.0708618164063	289.2146911621094	1399.18505859375	764.49853515625	668.0841674804688	1412.354858398438	697.6868896484375	681.9886474609375	1384.525390625	782.9075927734375	776.9679565429688	1419.78955078125	719.4502563476563	789.2559814453125	1394.947143554688	778.521484375	469.8607482910156	1364.881591796875	
59	0.3866666666666667	696.29443359375	113.3577423095703	1034.6669921875	718.7377319335938	124.8776321411133	1117.462646484375	842.3213500976563	1083.547729492188	1089.740600585938	776.740966796875	984.797607421875	1046.513793945313	637.385009765625	39.60714340209961	1080.096313476563	665.4321899414063	61.28755569458008	1038.880126953125	644.9050903320313	87.52467346191406	1082.905883789063	695.7346801757813	502.2907104492188	1045.787231445313	780.8847045898438	1131.975463867188	1068.935791015625	704.7634887695313	560.7048950195313	1055.967041015625	714.2112426757813	537.4359741210938	1173.09814453125	854.3582763671875	56.05791473388672	1119.53662109375	858.0919799804688	71.64043426513672	1080.115478515625	828.4798583984375	50.47892761230469	1010.911804199219	681.6930541992188	1101.778076171875	1180.051513671875	689.1494140625	202.6501159667969	1034.807373046875	646.508544921875	196.8278198242188	1068.48046875	674.1224975585938	281.3063659667969	1027.748413085938	632.3340454101563	276.5986633300781	1060.647705078125	707.9262084960938	703.9920654296875	1045.118286132813	661.9022827148438	711.2642211914063	1102.057739257813	717.5760498046875	813.91650390625	1041.80126953125	678.1054077148438	820.1226806640625	1099.875122070313	754.8040161132813	468.3002319335938	1095.829467773438	702.6359252929688	107.6427536010742	1411.6259765625	721.590576171875	130.9502868652344	1328.816284179688	849.2284545898438	1084.2880859375	1347.842407226563	796.3952026367188	984.9449462890625	1392.828125	636.2342529296875	40.18486022949219	1370.2060546875	659.9402465820313	59.69418334960938	1408.910034179688	643.583984375	89.74542236328125	1369.50146484375	724.1974487304688	502.664306640625	1414.17041015625	782.5798950195313	1136.479858398438	1369.38720703125	732.8429565429688	559.8557739257813	1404.786254882813	732.765625	541.8350830078125	1287.976196289063	857.1129760742188	61.18209838867188	1328.700317382813	858.0565795898438	74.05478668212891	1369.896606445313	832.7366333007813	54.65338134765625	1433.018798828125	689.0037231445313	1106.453735351563	1269.91845703125	693.4920043945313	202.783935546875	1417.255493164063	652.9797973632813	209.3705902099609	1385.23681640625	693.9871826171875	286.5511779785156	1430.482421875	650.0731201171875	289.2158203125	1399.178955078125	764.4778442382813	668.0946655273438	1412.363647460938	697.6748657226563	681.9859619140625	1384.519775390625	782.8974609375	776.9765625	1419.784301757813	719.4362182617188	789.2512817382813	1394.944458007813	778.5154418945313	469.8628540039063	1364.8701171875	
60	0.3933333333333334	696.2908935546875	113.3526382446289	1034.672241210938	718.73681640625	124.8760757446289	1117.456787109375	842.2999877929688	1083.552001953125	1089.735229492188	776.7335815429688	984.7928466796875	1046.524291992188	637.3870849609375	39.60509872436523	1080.1005859375	665.42236328125	61.30326843261719	1038.864013671875	644.9059448242188	87.52031707763672	1082.925903320313	695.732666015625	502.2879028320313	1045.786254882813	780.8661499023438	1131.976806640625	1068.936157226563	704.7364501953125	560.6991577148438	1055.955932617188	714.2125854492188	537.42236328125	1173.095092773438	854.3560791015625	56.06018447875977	1119.538208007813	858.0960083007813	71.62897491455078	1080.111083984375	828.4712524414063	50.47401428222656	1010.9091796875	681.6701049804688	1101.7783203125	1180.05859375	689.1417846679688	202.6515960693359	1034.811401367188	646.5068969726563	196.8229064941406	1068.482055664063	674.1117553710938	281.3056335449219	1027.744995117188	632.3287353515625	276.5917358398438	1060.644897460938	707.8941650390625	703.9949340820313	1045.1201171875	661.8817138671875	711.2681884765625	1102.046875	717.55712890625	813.916015625	1041.795532226563	678.0820922851563	820.118408203125	1099.871337890625	754.8036499023438	468.3019409179688	1095.821411132813	702.62841796875	107.6353225708008	1411.620727539063	721.5802612304688	130.9486541748047	1328.818481445313	849.2129516601563	1084.282470703125	1347.83740234375	796.3818359375	984.9451293945313	1392.818725585938	636.2310180664063	40.18624877929688	1370.219482421875	659.9415893554688	59.69741439819336	1408.9169921875	643.572998046875	89.74258422851563	1369.50146484375	724.1265258789063	502.5999450683594	1414.030395507813	782.572509765625	1136.475463867188	1369.372314453125	732.8240966796875	559.850830078125	1404.789672851563	732.7491455078125	541.8302612304688	1287.974853515625	857.1124877929688	61.18948745727539	1328.702392578125	858.047607421875	74.054931640625	1369.898315429688	832.7377319335938	54.65311431884766	1433.016479492188	688.9848022460938	1106.45166015625	1269.909545898438	693.4938354492188	202.7862243652344	1417.255615234375	652.978515625	209.3686676025391	1385.231689453125	693.9895629882813	286.5443420410156	1430.47705078125	650.0555419921875	289.2124633789063	1399.1748046875	764.4716796875	668.08056640625	1412.350708007813	697.6635131835938	681.9825439453125	1384.520629882813	782.8861694335938	776.9736328125	1419.779174804688	719.4226684570313	789.2546997070313	1394.927734375	778.5040893554688	469.8565368652344	1364.87548828125	
